<?xml version="1.0" standalone="no"?>
<!DOCTYPE svg PUBLIC "-//W3C//DTD SVG 20010904//EN"
 "http://www.w3.org/TR/2001/REC-SVG-20010904/DTD/svg10.dtd">
<svg version="1.0" xmlns="http://www.w3.org/2000/svg"
 width="300.000000pt" height="300.000000pt" viewBox="0 0 300.000000 300.000000"
 preserveAspectRatio="xMidYMid meet">
<metadata>
Created by potrace 1.10, written by Peter Selinger 2001-2011
</metadata>
<g transform="translate(0.000000,300.000000) scale(0.100000,-0.100000)"
fill="#ffffff" stroke="none">
<path d="M1180 2935 c-165 -25 -354 -79 -560 -160 -214 -83 -250 -107 -250
-165 0 -48 -22 -77 -70 -91 -56 -17 -64 -44 -56 -182 22 -371 55 -587 130
-837 48 -162 151 -419 169 -420 4 0 12 10 18 23 14 30 66 64 111 72 55 10 131
-10 210 -56 l70 -41 69 31 c82 37 149 41 178 12 15 -15 17 -28 13 -70 l-5 -51
32 0 c19 0 34 -6 37 -15 8 -21 151 -21 178 0 25 19 72 19 123 1 22 -8 67 -14
99 -13 57 1 124 -22 124 -42 0 -5 -17 0 -37 11 -26 13 -54 18 -88 17 -27 -2
-76 5 -107 15 -63 19 -92 15 -108 -14 -9 -16 -15 -18 -36 -10 -30 12 -91 12
-119 1 -14 -6 -27 -2 -43 10 -16 12 -33 16 -57 12 -40 -6 -41 -4 -24 63 10 39
9 47 -6 64 -10 11 -25 20 -34 20 -32 0 -152 -53 -162 -71 -10 -19 -11 -19 -42
5 -67 50 -163 86 -230 86 -75 0 -136 -54 -162 -145 -19 -65 -13 -115 21 -168
18 -27 22 -42 16 -55 -5 -9 -22 -66 -37 -125 -32 -128 -29 -136 55 -173 41
-17 74 -23 131 -24 87 0 131 14 185 62 35 31 38 32 48 14 21 -36 56 -59 122
-83 107 -37 120 -32 148 58 4 15 10 14 52 -7 26 -13 57 -24 69 -24 30 0 86 20
106 37 14 12 18 11 29 -2 7 -8 20 -15 30 -15 10 0 23 -7 31 -16 7 -8 30 -24
52 -35 32 -17 44 -18 66 -10 14 6 51 17 81 25 49 13 57 13 72 -1 20 -18 91
-13 169 13 l46 15 63 -61 c76 -72 100 -74 126 -10 15 37 34 54 34 30 0 -16 46
-33 63 -24 22 13 127 147 127 162 0 8 -17 41 -37 74 l-37 60 35 26 c76 59 119
105 119 127 0 41 -125 195 -158 195 -24 0 -35 -13 -76 -89 l-32 -61 -32 45
c-17 25 -38 45 -45 45 -20 0 -73 -28 -87 -45 -20 -24 -28 -18 -27 20 2 61 -65
124 -118 111 -13 -3 -37 -17 -52 -30 -26 -23 -28 -30 -29 -103 0 -43 -4 -97
-8 -121 l-9 -43 -23 58 c-29 69 -28 63 -6 63 15 0 17 8 14 64 l-4 63 43 37
c34 29 51 36 83 36 56 0 107 -29 129 -74 15 -31 20 -35 37 -26 28 15 83 12
109 -6 22 -16 24 -16 33 1 25 44 64 73 106 79 33 5 44 3 48 -9 11 -27 22 -16
52 48 103 217 176 452 222 714 39 218 63 610 40 652 -5 10 -29 25 -53 35 -49
18 -67 46 -67 101 0 42 -9 48 -145 108 -228 100 -464 171 -667 202 -121 19
-504 18 -628 0z m535 -253 c22 -5 56 -18 75 -27 54 -28 139 -104 146 -131 3
-13 19 -33 35 -45 16 -11 29 -27 29 -35 0 -8 9 -44 21 -79 39 -122 4 -301 -75
-385 -18 -19 -36 -43 -39 -52 -4 -10 -13 -18 -21 -18 -8 0 -21 -8 -28 -18 -7
-10 -21 -21 -30 -25 -30 -11 -50 -53 -43 -87 5 -23 20 -39 53 -60 26 -16 55
-30 64 -30 9 0 20 -5 23 -10 4 -6 22 -17 41 -25 19 -8 37 -21 40 -29 3 -9 28
-32 55 -52 27 -20 49 -41 49 -47 0 -7 21 -31 45 -55 25 -24 45 -50 45 -57 0
-8 6 -20 14 -27 17 -18 66 -120 66 -139 0 -8 6 -23 13 -34 19 -27 29 -85 16
-85 -5 0 -22 -12 -37 -27 -23 -23 -34 -26 -77 -24 -39 2 -56 8 -80 31 -103 99
-268 69 -322 -58 -11 -26 -18 -32 -31 -27 -9 4 -46 9 -82 11 -36 1 -81 7 -100
13 -49 15 -110 13 -144 -4 -35 -18 -102 -19 -139 -2 -22 10 -27 19 -27 47 0
101 -115 139 -250 84 -51 -20 -68 -23 -87 -15 -26 12 -30 33 -8 51 8 7 15 21
15 32 0 22 44 114 66 139 8 8 14 20 14 26 0 10 87 116 117 143 9 8 35 32 57
52 51 47 112 88 131 88 20 0 102 57 109 76 16 43 -6 104 -38 104 -6 0 -34 20
-62 44 -37 33 -62 68 -98 139 l-48 96 4 108 c4 102 10 128 47 193 4 8 16 31
26 50 58 113 216 203 345 196 36 -2 83 -8 105 -14z m-867 -1621 c68 -34 122
-77 122 -96 0 -7 -7 -18 -15 -25 -23 -19 -18 -30 14 -30 34 0 41 14 41 81 0
45 2 49 28 55 15 4 46 15 70 25 50 22 51 20 26 -79 -9 -35 -14 -66 -11 -68 3
-3 31 -1 63 5 31 6 59 9 61 7 2 -2 -8 -35 -23 -74 -26 -70 -26 -71 -57 -66
-18 3 -38 7 -44 10 -9 2 -13 -8 -13 -30 0 -18 -3 -61 -6 -95 l-7 -62 29 6 c89
20 90 21 90 78 0 190 142 285 249 166 l36 -40 -7 60 c-8 70 -5 71 67 45 24 -9
74 -17 110 -17 51 -2 72 -7 89 -22 37 -34 44 -56 51 -175 6 -111 30 -204 42
-170 3 8 18 87 32 174 15 87 29 165 32 172 3 8 17 14 32 15 15 0 20 3 11 6
-67 25 -67 107 1 128 26 9 67 -18 75 -49 7 -29 -20 -76 -45 -77 -9 0 -4 -5 12
-11 l27 -10 -2 -191 -3 -192 -62 -17 c-122 -32 -121 -32 -116 -4 6 30 0 31
-53 12 -22 -7 -55 -16 -74 -20 l-35 -6 9 140 c9 157 5 190 -24 190 -18 0 -20
-7 -20 -75 0 -41 5 -120 11 -175 7 -55 10 -103 7 -106 -3 -2 -37 11 -75 30
l-70 35 -7 62 -7 61 -22 -43 c-27 -53 -62 -79 -113 -85 -55 -7 -104 20 -131
74 l-21 43 -10 -48 c-6 -26 -14 -65 -17 -86 -4 -20 -10 -39 -14 -41 -3 -2 -42
9 -86 23 -105 34 -108 40 -102 199 3 67 1 122 -3 122 -4 0 -24 -7 -43 -15 -20
-8 -39 -15 -43 -15 -4 0 -4 25 0 55 3 30 4 55 2 55 -2 0 -16 -16 -31 -36 l-27
-36 25 -26 c38 -41 57 -86 57 -137 0 -109 -56 -155 -190 -155 -87 0 -180 29
-180 56 0 8 12 61 27 119 l26 105 51 -49 c63 -59 94 -77 109 -62 20 20 -10 59
-88 117 -87 63 -115 102 -115 157 0 64 44 142 90 161 33 13 131 -4 188 -33z
m1597 -120 l58 -73 -24 -22 c-13 -11 -52 -45 -86 -74 l-62 -53 36 -62 c20 -34
40 -64 44 -67 8 -5 -94 -142 -110 -148 -4 -1 -13 24 -20 56 -7 32 -16 64 -20
71 -5 7 -22 -24 -43 -81 -19 -51 -39 -93 -43 -93 -4 0 -35 31 -68 68 -44 49
-58 72 -52 81 6 8 36 44 68 82 33 38 61 75 65 83 3 9 -24 40 -73 86 l-79 72
62 42 c34 23 68 44 76 47 9 3 26 -15 51 -56 21 -34 41 -58 45 -53 6 7 45 77
89 162 7 13 16 19 20 15 5 -5 34 -42 66 -83z m-306 -226 c1 -14 -58 -85 -70
-85 -11 0 -12 38 -3 103 l7 47 33 -28 c18 -15 33 -32 33 -37z m-961 12 c3 -28
-12 -57 -29 -57 -5 0 -9 21 -9 46 0 38 3 45 18 42 10 -2 18 -14 20 -31z"/>
<path d="M724 915 c-3 -8 -3 -19 1 -25 9 -15 105 -62 105 -52 0 16 -71 92 -86
92 -8 0 -17 -7 -20 -15z"/>
<path d="M1340 784 c-22 -58 -6 -164 25 -164 34 0 46 92 20 154 -18 42 -32 46
-45 10z"/>
<path d="M1467 458 c-13 -11 -16 -34 -17 -118 -1 -58 -1 -113 -1 -122 1 -16
12 -18 75 -18 82 0 85 3 87 68 l1 37 15 -35 c22 -52 42 -70 79 -70 23 0 43 10
67 33 l35 33 6 -27 c4 -22 12 -28 43 -31 49 -7 53 -4 53 40 0 42 6 52 38 70
21 12 22 11 22 -23 0 -48 25 -93 55 -101 84 -21 144 80 100 166 -27 52 -87 67
-120 30 -18 -19 -18 -19 -47 5 -24 21 -38 24 -74 21 -24 -3 -48 -7 -54 -11 -5
-3 -10 -33 -10 -66 0 -68 -15 -79 -24 -16 -8 51 -23 73 -60 87 -41 15 -77 -6
-103 -60 -20 -41 -22 -43 -23 -17 0 33 -27 77 -46 77 -8 0 -14 9 -14 20 0 13
-10 24 -26 30 -33 13 -37 13 -57 -2z m63 -41 c0 -13 9 -26 22 -32 27 -12 35
-44 30 -111 -4 -48 -5 -51 -29 -46 -24 5 -25 7 -19 58 4 34 2 54 -4 54 -5 0
-10 -24 -10 -53 0 -61 -3 -67 -31 -60 -21 6 -24 40 -13 152 6 56 9 61 30 61
18 0 24 -6 24 -23z m219 -41 c17 -21 31 -75 21 -81 -5 -3 -7 -12 -3 -20 7 -20
-12 -42 -44 -50 -62 -15 -101 91 -53 143 24 25 62 29 79 8z m199 2 c17 -17
-13 -48 -39 -41 -17 5 -19 0 -19 -57 0 -53 -2 -61 -16 -56 -9 3 -21 6 -28 6
-12 0 -12 22 0 118 5 42 5 42 48 42 23 0 47 -5 54 -12z m156 -32 c23 -49 20
-74 -13 -107 -36 -35 -45 -36 -76 -4 -48 47 -20 145 41 145 26 0 35 -6 48 -34z"/>
<path d="M1705 280 c3 -5 8 -10 11 -10 2 0 4 5 4 10 0 6 -5 10 -11 10 -5 0 -7
-4 -4 -10z"/>
<path d="M2045 309 c-4 -12 -2 -26 4 -32 8 -8 11 -2 11 21 0 37 -6 41 -15 11z"/>
<path d="M1250 435 c-5 -13 -21 -32 -36 -41 -23 -16 -31 -16 -73 -4 -25 7 -59
15 -76 18 l-30 5 20 -23 c48 -54 346 -314 388 -337 52 -29 113 -6 210 79 l39
33 -31 23 c-31 23 -32 23 -56 4 -18 -15 -36 -18 -82 -15 -32 1 -69 8 -82 15
-23 13 -23 13 -17 133 l7 120 -49 -3 c-27 -2 -66 1 -86 6 -34 10 -38 9 -46
-13z"/>
<path d="M1786 421 c-4 -5 -2 -12 3 -15 5 -4 12 -2 15 3 4 5 2 12 -3 15 -5 4
-12 2 -15 -3z"/>
</g>
</svg>
